# xmcd
#
# Track frame offsets: 
#        150
#        18443
#        37525
#        52546
#        66791
#        92434
#        110892
#
# Disc length: 1870 seconds
#
# Revision: 0
# Processed by: cddbd v1.5.2PL0 Copyright (c) Steve Scherf et al.
# Submitted via: ExactAudioCopy v0.99pb4
#
DISCID=46074c07
DTITLE=Alabama - The Alabama Band #3
DYEAR=1979
DGENRE=Country
TTITLE0=Fantasy
TTITLE1=Why, Lady, Why
TTITLE2=Just Along For The Ride
TTITLE3=Can't Forget About You
TTITLE4=Keep On Dreamin'
TTITLE5=My Home's In Alabama
TTITLE6=Tennessee River
EXTD=
EXTT0=
EXTT1=
EXTT2=
EXTT3=
EXTT4=
EXTT5=
EXTT6=
PLAYORDER=
